<svg width="256" height="256" viewBox="0 0 256 256" fill="none" xmlns="http://www.w3.org/2000/svg">
<circle cx="128" cy="128" r="128" fill="#212121"/>
<path d="M152 76H63C61.3431 76 60 77.3431 60 79V85C60 86.6569 61.3431 88 63 88H152C153.657 88 155 86.6569 155 85V79C155 77.3431 153.657 76 152 76Z" fill="#ED3838"/>
<path d="M192 99H63C61.3431 99 60 100.343 60 102V108C60 109.657 61.3431 111 63 111H192C193.657 111 195 109.657 195 108V102C195 100.343 193.657 99 192 99Z" fill="#95D16A"/>
<path d="M165 122H63C61.3431 122 60 123.343 60 125V131C60 132.657 61.3431 134 63 134H165C166.657 134 168 132.657 168 131V125C168 123.343 166.657 122 165 122Z" fill="#54B0FC"/>
<path d="M192 145H63C61.3431 145 60 146.343 60 148V154C60 155.657 61.3431 157 63 157H192C193.657 157 195 155.657 195 154V148C195 146.343 193.657 145 192 145Z" fill="#CC6BE9"/>
<path d="M140 168H63C61.3431 168 60 169.343 60 171V177C60 178.657 61.3431 180 63 180H140C141.657 180 143 178.657 143 177V171C143 169.343 141.657 168 140 168Z" fill="#E09956"/>
</svg>
